<?xml version="1.0" encoding="iso-8859-1"?>
<!-- Uploaded to: SVG Repo, www.svgrepo.com, Generator: SVG Repo Mixer Tools -->
<!DOCTYPE svg PUBLIC "-//W3C//DTD SVG 1.1//EN" "http://www.w3.org/Graphics/SVG/1.1/DTD/svg11.dtd">
<svg fill="#000000" height="800px" width="800px" version="1.1" id="Capa_1" xmlns="http://www.w3.org/2000/svg" xmlns:xlink="http://www.w3.org/1999/xlink" 
	 viewBox="0 0 479.23 479.23" xml:space="preserve">
<path d="M365.796,342.529c-10.967-85.178-45.663-165.207-100.336-231.437l-53.292-64.558c-0.338-0.41,4.901-37.824,4.901-37.824
	c0.667-4.088-2.105-7.943-6.193-8.611c-4.087-0.67-7.943,2.105-8.611,6.192l-2.225,13.622l-5.203-13.806
	c-1.461-3.876-5.791-5.833-9.663-4.373c-3.877,1.461-5.834,5.787-4.374,9.663l13.167,34.938c-0.108,0.175-0.215,0.35-0.313,0.532
	l-34.068,63.619c-13.636,25.46-24.478,52.492-32.224,80.346c-9.391,33.777-14.223,68.695-14.361,103.767
	c-0.053,9.711,0.271,19.571,0.961,29.301l10.302,146.033c0.326,4.625,3.788,8.418,8.363,9.166c0.542,0.088,1.082,0.131,1.617,0.131
	c3.983,0,7.658-2.386,9.228-6.159l56.232-135.157c9.216-22.142,16.353-45.02,21.378-68.387
	c12.876,37.803,30.749,73.931,53.325,107.447v0c9.67,14.355,24.959,22.287,41.144,22.287c6.015,0,12.154-1.096,18.174-3.365
	C355.94,387.522,368.828,366.076,365.796,342.529z M182.732,326.543L168.4,306.618l9.415-57.626l20.788,28.906
	C194.441,294.435,189.137,310.68,182.732,326.543z M146.631,196.191c0.043-0.156,0.09-0.31,0.133-0.466l27.821-20.008l-13.44,82.268
	l-27.689,19.912C134.809,250.266,139.218,222.853,146.631,196.191z M196.89,132.227l0.143,4.654
	c0.813,26.426,3.919,52.583,9.219,78.213l-18.661-25.948L196.89,132.227z M217.024,136.267l-0.962-31.305l9.326,24.745
	l-7.878,17.414C217.308,143.508,217.135,139.892,217.024,136.267z M133.911,322.488c-0.607-8.563-0.901-17.224-0.903-25.794
	l24.716-17.774l-18.779,114.943L133.911,322.488z M164.98,327.552l11.007,15.301l-22.24,53.455L164.98,327.552z M181.235,228.056
	l2.937-17.974l21.832,30.357c-0.867,5.977-1.876,11.927-3.03,17.845L181.235,228.056z M232.869,149.559l21.693,57.56l-19.031,42.042
	c-7.093-23.378-12.199-47.368-15.272-71.73L232.869,149.559z M320.072,243.293l-43.218-19.559l-12.938-34.328
	c4.433,2.005,33.767,14.689,39.996,17.312C309.863,218.654,315.249,230.861,320.072,243.293z M262.043,226.968l6.827,18.116
	l-19.458,42.994c-2.436-5.927-4.75-11.9-6.918-17.924L262.043,226.968z M276.352,264.935l9.968,26.449l-17.259,38.137
	c-4.079-7.546-7.937-15.196-11.553-22.949L276.352,264.935z M284.336,243.585l42.842,19.389c5.614,16.834,10.204,34.04,13.733,51.53
	l-35.984-16.285L284.336,243.585z M292.669,185.645c-17.072-7.346-31.706-13.926-36.417-16.578l-26.153-69.395l19.938,24.152
	C266.085,143.267,280.325,163.956,292.669,185.645z M177.216,119.929l9.33-17.423l-8.541,52.275l-23.686,17.033
	C160.628,153.966,168.291,136.593,177.216,119.929z M326.67,377.18c-10.303,3.883-25.83,3.235-35.676-11.381v0
	c-4.451-6.608-8.706-13.326-12.772-20.139l15.579-34.425l8.092,21.47c1.133,3.005,3.987,4.857,7.02,4.857
	c0.879,0,1.773-0.156,2.644-0.484c3.877-1.461,5.834-5.787,4.374-9.663l-3.522-9.345l31.718,14.355
	c0.667,4.207,1.289,8.425,1.834,12.659C348.21,362.56,336.975,373.296,326.67,377.18z"/>
</svg>